<?xml version="1.0" ?><svg xmlns="http://www.w3.org/2000/svg" xmlns:xlink="http://www.w3.org/1999/xlink" version="1.1" id="Layer_1" viewBox="0 0 512 512" style="enable-background:new 0 0 512 512;" xml:space="preserve"><g><path d="M437.926,371.083L420.882,351H441c5.523,0,10-4.477,10-10v-10h20c11.028,0,20-8.972,20-20v-40c0-11.028-8.972-20-20-20h-20   v-20c0-3.788-2.14-7.25-5.528-8.944l-80-40C358.814,178.728,351,183.59,351,191v60H241c-5.523,0-10,4.477-10,10v20h-45.858   l-27.071-27.071C156.196,252.054,153.652,251,151,251H61c-3.513,0-6.768,1.843-8.575,4.855l-30,50C18.431,312.51,23.237,321,31,321   h106.666L171,346v65h-36.755C122.771,386.812,98.197,371,71,371c-38.598,0-70,31.402-70,70s31.402,70,70,70   c27.197,0,51.771-15.812,63.245-40c4.8,0,120.412,0,125.755,0c2.652,0,5.196-1.054,7.071-2.929l51-51   c1.875-1.875,2.929-4.419,2.929-7.071v-59h17.247l45.047,50.388C375.323,412.991,371,426.762,371,441c0,38.598,31.402,70,70,70   s70-31.402,70-70C511,400.692,477.202,369.313,437.926,371.083z M251,271h110c5.523,0,10-4.477,10-10v-53.82l60,30V331   c-9.892,0-169.373,0-180,0V271z M171,451H91c-5.514,0-10-4.486-10-10s4.486-10,10-10h80V451z M71,491c-27.57,0-50-22.43-50-50   s22.43-50,50-50c15.996,0,30.723,7.655,40.002,20H91c-16.542,0-30,13.458-30,30s13.458,30,30,30h20.002   C101.723,483.345,86.996,491,71,491z M301,405.858L255.858,451H191V351c11.152,0,96.55,0,110,0V405.858z M394.651,351   c34.525,40.673,53.188,62.701,53.628,63.141c3.898,3.898,3.898,10.241,0.001,14.138c-3.843,3.843-10.062,3.897-13.973,0.163   c-14.973-16.748-54.206-60.633-69.233-77.441H394.651z M441,491c-38.033,0-62.04-40.954-43.824-74.083l22.438,25.099   c10.162,11.363,30.276,12.935,42.807,0.406c11.589-11.589,11.693-30.381,0.315-42.102l-5.652-6.66   C476.628,400.331,491,418.84,491,441C491,468.57,468.57,491,441,491z"/><path d="M191,121h37.192l-16.894,67.575c-1.131,4.524,1.016,9.23,5.174,11.342c4.153,2.107,9.219,1.075,12.21-2.515l100-120   C334.105,70.894,329.455,61,321,61h-49.23l18.514-46.286C292.911,8.147,288.063,1,281,1h-50c-4.089,0-7.766,2.489-9.285,6.286   l-40,100C179.089,113.853,183.936,121,191,121z M237.77,21h28.459l-18.514,46.286C245.089,73.853,249.936,81,257,81h42.649   l-58.345,70.015l9.398-37.589C252.277,107.123,247.507,101,241,101h-35.23L237.77,21z"/></g></svg>